<?xml version="1.0" standalone="no"?>
<!DOCTYPE svg PUBLIC "-//W3C//DTD SVG 20010904//EN"
 "http://www.w3.org/TR/2001/REC-SVG-20010904/DTD/svg10.dtd">
<svg version="1.0" xmlns="http://www.w3.org/2000/svg"
 width="281.000000pt" height="301.000000pt" viewBox="0 0 281.000000 301.000000"
 preserveAspectRatio="xMidYMid meet">

<g transform="translate(0.000000,301.000000) scale(0.100000,-0.100000)"
fill="#000000" stroke="none">
<path d="M1232 2775 c-181 -63 -291 -188 -323 -367 -15 -86 -2 -166 41 -254
53 -108 155 -182 343 -249 221 -78 282 -122 308 -219 23 -83 -37 -190 -144
-259 -83 -53 -99 -62 -151 -81 l-48 -18 -36 35 -35 36 58 63 c61 65 109 156
118 221 6 38 6 39 -21 32 -72 -18 -179 -100 -230 -177 -13 -21 -30 -38 -36
-38 -6 1 -26 14 -45 30 l-33 28 12 54 c15 64 48 139 101 230 21 36 39 69 39
72 0 2 -8 6 -17 8 -12 2 -27 -11 -45 -36 -23 -34 -35 -42 -83 -53 -137 -31
-253 -121 -309 -241 -16 -34 -28 -64 -25 -66 2 -2 36 6 74 20 96 32 185 29
208 -8 8 -11 6 -26 -6 -51 -23 -48 -22 -51 18 -84 35 -27 36 -29 22 -58 -39
-81 -49 -106 -44 -111 3 -3 31 10 61 30 31 20 62 36 69 36 6 0 26 -13 43 -29
l30 -29 38 23 c43 26 72 23 80 -8 12 -46 5 -139 -14 -194 -11 -31 -19 -58 -17
-59 1 -2 23 7 47 19 95 47 203 185 225 284 5 28 16 37 69 63 149 71 226 231
183 381 -36 122 -128 188 -407 289 -164 60 -250 120 -304 212 -48 82 -52 204
-9 295 26 57 124 150 186 177 29 14 76 27 103 31 l49 6 -66 -24 c-264 -96
-354 -356 -184 -531 56 -57 116 -89 287 -152 140 -52 185 -74 256 -126 59 -44
106 -110 123 -173 6 -22 9 -74 7 -115 -7 -124 -69 -214 -193 -279 -40 -21 -50
-32 -56 -61 -4 -19 -6 -36 -5 -37 5 -5 104 25 136 42 64 33 131 89 162 134 17
25 18 14 18 -272 l0 -298 -32 3 -33 3 0 233 c0 127 -1 232 -3 232 -1 0 -20
-13 -43 -29 -38 -28 -146 -74 -199 -85 -17 -4 -34 -20 -49 -47 -13 -22 -49
-67 -80 -98 -113 -115 -206 -158 -283 -131 -82 30 -109 119 -69 230 28 77 16
100 -17 34 -32 -62 -41 -163 -19 -215 24 -57 72 -104 139 -135 l63 -29 608 -3
c362 -2 607 1 607 6 0 26 -35 32 -216 34 l-189 3 -3 107 -3 107 -34 21 c-19
12 -35 26 -35 31 0 12 6 11 40 -6 28 -15 30 -14 30 4 0 11 -14 27 -35 40 -19
11 -35 25 -35 31 0 16 15 12 44 -11 25 -20 26 -20 26 -1 0 11 -15 30 -35 43
-19 13 -35 30 -35 37 0 18 10 15 55 -16 l40 -28 5 -164 5 -165 109 -3 c126 -3
149 1 120 23 -13 10 -46 14 -106 15 l-88 0 0 160 0 160 -102 68 -103 68 -6
219 c-6 217 -15 282 -45 316 -8 8 -14 20 -14 25 0 19 -107 114 -165 146 -33
19 -96 47 -140 62 -214 77 -278 115 -314 190 -31 67 -35 113 -16 171 46 135
170 208 355 209 41 0 89 -3 105 -8 26 -6 28 -5 15 7 -8 7 -40 24 -70 37 -45
19 -78 24 -180 27 -114 3 -131 1 -198 -22z m-202 -993 c0 -15 -24 -32 -44 -32
-32 0 -138 -53 -181 -91 l-39 -34 21 31 c12 17 38 43 58 58 66 50 185 94 185
68z m208 -187 c-37 -36 -87 -91 -110 -123 -24 -31 -51 -66 -62 -77 -18 -20
-18 -20 -6 5 42 80 127 182 194 231 61 45 56 34 -16 -36z m-210 -114 c26 -23
28 -34 6 -51 -22 -19 -59 18 -49 49 8 26 14 26 43 2z m452 -109 c0 -28 -45
-139 -72 -177 -17 -25 -33 -43 -34 -42 -2 2 8 25 21 52 13 28 30 73 37 100 6
28 16 56 21 63 11 14 27 16 27 4z m450 -273 c0 -180 -3 -230 -12 -227 -10 4
-14 61 -16 231 -2 198 0 227 13 227 13 0 15 -31 15 -231z m-282 -69 c-2 -112
-6 -154 -15 -158 -10 -3 -13 30 -13 143 l0 147 -36 -7 c-27 -5 -35 -3 -32 7 5
15 80 39 91 29 4 -4 6 -77 5 -161z m-78 -66 c0 -72 -3 -95 -12 -92 -9 3 -14
31 -16 83 -3 82 1 105 18 105 6 0 10 -37 10 -96z"/>
<path d="M1744 2515 c-119 -39 -223 -101 -321 -190 -47 -42 -51 -50 -27 -59
11 -4 33 7 61 30 l44 36 55 -60 c60 -67 128 -110 217 -138 57 -19 57 -19 55
-57 -2 -42 17 -71 31 -48 13 21 41 211 41 278 0 52 -12 152 -25 211 -7 29 -38
28 -131 -3z m-25 -84 c-41 -26 -85 -60 -98 -74 l-24 -26 67 -66 c36 -36 63
-65 58 -65 -33 0 -172 128 -172 159 0 16 69 59 147 91 99 42 105 36 22 -19z"/>
<path d="M694 1154 c-126 -130 -227 -239 -224 -242 13 -16 58 3 89 36 29 32
143 154 331 355 55 59 65 77 44 84 -6 2 -114 -103 -240 -233z"/>
<path d="M775 1028 c-60 -72 -116 -137 -123 -144 -10 -11 -47 -14 -146 -14
-120 0 -135 -2 -151 -20 -18 -20 -17 -20 152 -20 l170 0 108 160 c60 88 106
162 104 164 -2 2 -53 -55 -114 -126z"/>
<path d="M192 710 c-46 -21 -63 -50 -55 -94 8 -40 41 -56 133 -65 92 -10 124
-28 99 -57 -11 -14 -26 -15 -94 -11 -44 3 -92 9 -106 12 -22 6 -27 3 -32 -16
-9 -33 1 -39 80 -51 144 -23 233 10 233 86 0 60 -32 79 -152 90 -106 10 -130
41 -49 63 14 3 57 2 95 -4 74 -10 86 -6 86 28 0 39 -166 52 -238 19z"/>
<path d="M2015 706 c-63 -30 -85 -65 -85 -141 0 -51 3 -60 33 -90 74 -74 236
-74 308 1 30 31 33 41 34 92 0 71 -25 110 -90 141 -61 29 -135 28 -200 -3z
m143 -42 c49 -10 72 -38 72 -89 0 -36 -5 -47 -31 -69 -25 -21 -41 -26 -86 -26
-47 0 -59 4 -84 29 -48 49 -37 120 24 146 36 16 60 18 105 9z"/>
<path d="M2412 710 c-46 -21 -66 -55 -56 -96 10 -38 46 -55 134 -63 91 -8 124
-27 99 -57 -11 -14 -27 -16 -99 -11 -47 3 -95 9 -106 12 -17 5 -23 1 -28 -20
-4 -15 -5 -29 -3 -31 2 -2 37 -9 78 -15 150 -24 239 8 239 85 0 31 -28 74 -49
77 -3 0 -46 6 -96 12 -81 11 -90 14 -93 34 -3 18 3 23 34 29 20 4 67 2 103 -3
70 -11 77 -9 83 21 7 43 -162 62 -240 26z"/>
<path d="M480 690 l0 -30 60 0 60 0 0 -115 0 -115 35 0 35 0 0 115 0 115 65 0
65 0 0 30 0 30 -160 0 -160 0 0 -30z"/>
<path d="M850 575 l0 -145 34 0 c34 0 35 1 38 48 l3 47 47 3 c46 3 48 2 84
-47 34 -48 38 -51 81 -51 l45 0 -36 44 c-20 24 -36 48 -36 53 0 5 14 19 31 32
27 20 30 27 27 69 -3 40 -8 49 -37 69 -31 21 -45 23 -157 23 l-124 0 0 -145z
m248 53 c4 -36 -25 -48 -114 -48 l-64 0 0 40 0 41 88 -3 c87 -3 87 -3 90 -30z"/>
<path d="M1342 688 c-11 -18 -35 -62 -55 -98 -19 -36 -46 -86 -61 -112 l-26
-48 40 0 c33 0 42 4 52 25 11 24 14 25 108 25 93 0 97 -1 110 -25 11 -21 21
-25 56 -25 l42 0 -81 145 -82 145 -42 0 c-36 0 -44 -4 -61 -32z m91 -87 c15
-27 27 -52 27 -55 0 -8 -105 -8 -112 0 -6 6 43 104 52 104 3 0 17 -22 33 -49z"/>
<path d="M1580 690 l0 -30 65 0 65 0 0 -115 0 -115 35 0 35 0 0 115 0 115 60
0 60 0 0 30 0 30 -160 0 -160 0 0 -30z"/>
<path d="M881 333 c-63 -32 -79 -130 -29 -180 29 -29 103 -43 165 -32 55 11
57 12 48 39 -5 16 -11 19 -28 13 -12 -4 -43 -8 -69 -8 -58 0 -88 24 -88 71 0
50 33 68 115 62 52 -5 65 -3 70 10 10 26 -12 36 -83 40 -49 2 -76 -2 -101 -15z"/>
<path d="M1175 340 c-55 -23 -82 -74 -71 -133 8 -44 41 -73 95 -86 109 -24
194 25 193 111 -1 50 -24 86 -67 104 -37 15 -118 18 -150 4z m140 -60 c23 -25
24 -76 1 -98 -24 -24 -107 -23 -135 2 -25 23 -27 63 -5 94 21 31 112 32 139 2z"/>
<path d="M1440 235 l0 -115 85 0 c107 0 146 15 169 65 32 68 1 134 -75 155
-19 6 -67 10 -106 10 l-73 0 0 -115z m187 43 c27 -26 30 -58 6 -87 -14 -17
-30 -22 -78 -24 l-60 -2 -3 68 -3 67 57 0 c45 0 63 -5 81 -22z"/>
<path d="M1750 235 l0 -115 115 0 c108 0 115 1 115 20 0 17 -8 19 -87 22 -85
3 -88 4 -88 27 0 23 3 24 75 25 68 1 75 3 75 21 0 18 -8 20 -77 23 -70 3 -78
5 -78 22 0 18 7 20 85 20 84 0 85 0 85 25 l0 25 -110 0 -110 0 0 -115z"/>
<path d="M447 283 c-86 -2 -136 -7 -132 -13 4 -6 91 -10 216 -10 179 0 209 2
209 15 0 12 -14 15 -77 13 -43 -1 -140 -4 -216 -5z"/>
<path d="M2060 277 c0 -15 21 -17 203 -17 113 0 209 5 217 10 10 7 -13 10 -75
10 -49 0 -147 3 -217 7 -115 5 -128 4 -128 -10z"/>
<path d="M430 220 c41 -4 128 -10 193 -14 100 -5 117 -4 117 9 0 13 -27 15
-192 14 -152 -1 -177 -3 -118 -9z"/>
<path d="M2060 214 c0 -13 15 -14 113 -8 262 15 282 21 80 23 -168 1 -193 -1
-193 -15z"/>
</g>
</svg>
